# xmcd
#
# Track frame offsets: 
#        150
#        14216
#        30709
#        50675
#        68903
#        87441
#        108532
#        124726
#        136592
#        151981
#        168953
#        189803
#        200964
#        215124
#        233608
#        250908
#        266928
#        283068
#        304303
#        319030
#
# Disc length: 4496 seconds
#
# Revision: 4
# Processed by: cddbd v1.5.2PL0 Copyright (c) Steve Scherf et al.
# Submitted via: ExactAudioCopyFreeDBPlugin 1.0
#
DISCID=2f118e14
DTITLE=Ray Charles - 1962 - The Complete Country and Western Recordings-
DTITLE=1959-1986 Cd 3
DYEAR=1998
DGENRE=Country
TTITLE0=Ring of Fire
TTITLE1=What Am I Living For
TTITLE2=The Three Bells
TTITLE3=All I Ever Need Is You
TTITLE4=Wichita Lineman
TTITLE5=Down in the Valley
TTITLE6=Take Me Home, Country Roads
TTITLE7=Never Ending Song of Love
TTITLE8=Come Live with Me
TTITLE9=Sunshine
TTITLE10=We Had It All
TTITLE11=(Turn Out the Light And) Love Me Tonight
TTITLE12=I Wish You Were Here Tonight
TTITLE13=Ain't Your Memory Got No Pride at All
TTITLE14=Born to Love Me
TTITLE15=I Don't Want No Stranger Sleepin' in My Bed
TTITLE16=Let Your Love Flow
TTITLE17=You Feel Good All Over
TTITLE18=You've Got the Longest Leaving Act in Town
TTITLE19=String Bean
EXTD=
EXTT0=
EXTT1=
EXTT2=
EXTT3=
EXTT4=
EXTT5=
EXTT6=
EXTT7=
EXTT8=
EXTT9=
EXTT10=
EXTT11=
EXTT12=
EXTT13=
EXTT14=
EXTT15=
EXTT16=
EXTT17=
EXTT18=
EXTT19=
PLAYORDER=
